<svg xmlns="http://www.w3.org/2000/svg" version="1.1" xmlns:xlink="http://www.w3.org/1999/xlink" xmlns:svgjs="http://svgjs.dev/svgjs" style="overflow: hidden; height: 85vh;" viewBox="0 0 1920 1080" class="overflow-hidden rounded-md drop-shadow-lg transition duration-300"><rect width="1920" height="1080" fill="#c32c27"/><g clip-path="url(&quot;#SvgjsClipPath1273&quot;)"><g transform="matrix(0.6263348902672806,-0.9644711531372379,0.9644711531372379,0.6263348902672806,-173.1196139571989,1099.2180808670182)"><path d="M0,-1080C-9.688244860503106,-961.642117203538,-66.69490260713431,-595.1823430946891,-58.12946916301863,-369.852703221228C-49.564035718902964,-144.5230633477669,34.94101155235013,50.998441533871045,51.392600664694015,271.97783924076646C67.8441897770379,492.95723694766184,38.22841542591391,761.5191986137655,40.580065511044666,956.0236830201444C42.93171559617542,1150.5281674265234,72.26584542731933,1238.3420261823971,65.50250117547856,1439.0047456790398C58.73915692363778,1639.6674651756825,10.917083529246426,2039.83412427984,0,2160L 1920 2160 L 1920 -1080 Z" fill="url(&quot;#SvgjsLinearGradient1265&quot;)"/><path d="M240,-1080C223.65844513005104,-993.4062443633579,154.2903243070109,-729.5988297268165,141.95067078030627,-560.4374661801478C129.61101725360163,-391.2761026334791,154.52047970630596,-242.40707523373598,165.9620788397721,-65.03181871998774C177.40367797323822,112.3434377937605,184.9973003353782,296.79093855163774,210.60026558110297,503.81407290234165C236.20323082682773,710.8372072530456,326.54194432397657,1006.0063513620333,319.57987031412074,1177.1069873842355C312.6177963042649,1348.2076234064377,182.09113324098809,1366.6023869329274,168.82782152196796,1530.4178890355547C155.56450980294784,1694.233391138182,228.13797025366134,2055.0696481725927,240,2160L 1920 2160 L 1920 -1080 Z" fill="url(&quot;#SvgjsLinearGradient1266&quot;)"/><path d="M480,-1080C472.4798290493284,-964.2556522634621,444.35952442789807,-604.4571100504005,434.87897429597024,-385.5339135807726C425.3984241640424,-166.61071711114468,410.1486793751872,9.462470995622454,423.11669920843315,233.5391788177676C436.0847190416791,457.6158866399128,506.18450162371295,750.2231651931587,512.6870932954457,958.9263333520983C519.1896849671786,1167.6295015110377,467.5800981214042,1285.579243330088,462.1322492388299,1485.758187771405C456.6844003562556,1685.9371322127217,477.022041539805,2047.6263646285674,480,2160L 1920 2160 L 1920 -1080 Z" fill="url(&quot;#SvgjsLinearGradient1267&quot;)"/><path d="M720,-1080C722.3132874736286,-1005.340398592337,720.5713488884248,-780.6644743351222,733.8797248417718,-632.042391554022C747.1881007951188,-483.42030877292166,789.0121226350363,-343.92288582078055,799.8502557200821,-188.26750331339844C810.6883888051279,-32.61212080601632,821.3636071912703,140.6103592537557,798.9085233520465,301.8899034902707C776.4534395128227,463.1694477267857,682.1781361387484,612.6579115656542,665.1197526847393,779.4097621056915C648.0613692307302,946.1616126457287,678.4728141992096,1142.1831395328657,696.5582226279914,1302.4010067304944C714.6436310567733,1462.618873928123,769.7252403620957,1597.783799746546,773.6322032574305,1740.7169652914636C777.5391661527653,1883.650130836381,728.938700542905,2090.119494215244,720,2160L 1920 2160 L 1920 -1080 Z" fill="url(&quot;#SvgjsLinearGradient1268&quot;)"/><path d="M960,-1080C967.1638025312807,-1018.7229935805425,1015.9101411986986,-866.915403786867,1002.982815187684,-712.337961483255C990.0554891766693,-557.7605191796429,875.4477559226433,-315.5039450578653,882.4360439339123,-152.53534617832736C889.4243319451813,10.433252701210563,1033.9524109925335,116.92761670922332,1044.912543255298,265.4736317939726C1055.8726755180626,414.0196468787218,951.0718946653672,591.6772071840402,948.196837510499,738.7407443301681C945.3217803556308,885.8042814762961,1028.1324308402168,990.6354294298145,1027.6622003260893,1147.8548546707402C1027.1919698119618,1305.074279911666,956.6524878134155,1513.3664382208458,945.375454425734,1682.0572957757224C934.0984210380525,1850.748153330599,957.5625757376223,2080.342882629287,960,2160L 1920 2160 L 1920 -1080 Z" fill="url(&quot;#SvgjsLinearGradient1269&quot;)"/><path d="M1200,-1080C1202.427458517632,-1001.6643687589369,1216.5984193247307,-768.076077293918,1214.564751105792,-609.9862125536216C1212.5310828868535,-451.8963478133252,1204.1330037658556,-279.2231163772285,1187.7979906863688,-131.46081155822162C1171.462977606882,16.301493260785264,1114.5104527956546,132.55180697567022,1116.554672628871,276.58761636041964C1118.5988924620874,420.6234257451691,1171.247299734303,589.2479088545024,1200.0633096856675,732.7540447502749C1228.879319637032,876.2601806460475,1277.0873917013967,972.9829212457751,1289.4507323370576,1137.6244317350547C1301.8140729727186,1302.2659422243344,1289.1518088891426,1550.2071796417952,1274.243353499633,1720.6031076859526C1259.3348981101235,1890.99903573011,1212.3738922499388,2086.7671846143253,1200,2160L 1920 2160 L 1920 -1080 Z" fill="url(&quot;#SvgjsLinearGradient1270&quot;)"/><path d="M1440,-1080C1429.1774222420484,-967.8410120125759,1364.0061821076897,-622.3864112695064,1375.0645334522903,-407.0460720754554C1386.122884796891,-191.70573288140443,1508.6385904153115,-8.900464457673394,1506.3501080676035,212.0420351643058C1504.0616257198956,432.98453478628494,1356.1433405945927,694.8603265309325,1361.3336393660427,918.6089256564196C1366.5239381374927,1142.3575247819067,1524.380840590644,1347.6351175266313,1537.4919006963037,1554.5336299172282C1550.6029608019633,1761.432142307825,1456.2486501160506,2059.088938319538,1440,2160L 1920 2160 L 1920 -1080 Z" fill="url(&quot;#SvgjsLinearGradient1271&quot;)"/><path d="M1680,-1080C1663.3452905208928,-968.087888527154,1571.033559108932,-615.4663125901751,1580.0717431253572,-408.5273311629235C1589.1099271417825,-201.58834973567187,1715.4932114546455,-46.96454911800345,1734.2291040985513,161.6338885635096C1752.964996742457,370.23232624502265,1697.3282595478693,618.2172809230836,1692.4870989887913,843.0632949261548C1687.6459384297134,1067.909308929226,1707.263323908882,1291.2205217362953,1705.1821407440834,1510.7099725819362C1703.1009575792848,1730.1994234275771,1684.1970234573473,2051.784995430323,1680,2160L 1920 2160 L 1920 -1080 Z" fill="url(&quot;#SvgjsLinearGradient1272&quot;)"/></g></g><defs><linearGradient x1="0.1" y1="0" x2="0" y2="1" id="SvgjsLinearGradient1265"><stop stop-color="#c32c27" offset="0"/><stop stop-color="#c3273c" offset="0"/></linearGradient><linearGradient x1="0.1" y1="0" x2="0" y2="1" id="SvgjsLinearGradient1266"><stop stop-color="#c32797" offset="0"/><stop stop-color="#c327b1" offset="0.125"/></linearGradient><linearGradient x1="0.1" y1="0" x2="0" y2="1" id="SvgjsLinearGradient1267"><stop stop-color="#7a27c3" offset="0"/><stop stop-color="#6027c3" offset="0.25"/></linearGradient><linearGradient x1="0.1" y1="0" x2="0" y2="1" id="SvgjsLinearGradient1268"><stop stop-color="#2749c3" offset="0"/><stop stop-color="#2763c3" offset="0.375"/></linearGradient><linearGradient x1="0.1" y1="0" x2="0" y2="1" id="SvgjsLinearGradient1269"><stop stop-color="#27bec3" offset="0"/><stop stop-color="#27c3ae" offset="0.5"/></linearGradient><linearGradient x1="0.1" y1="0" x2="0" y2="1" id="SvgjsLinearGradient1270"><stop stop-color="#27c353" offset="0"/><stop stop-color="#27c339" offset="0.625"/></linearGradient><linearGradient x1="0.1" y1="0" x2="0" y2="1" id="SvgjsLinearGradient1271"><stop stop-color="#70c327" offset="0"/><stop stop-color="#8ac327" offset="0.75"/></linearGradient><linearGradient x1="0.1" y1="0" x2="0" y2="1" id="SvgjsLinearGradient1272"><stop stop-color="#c3a127" offset="0"/><stop stop-color="#c38727" offset="0.875"/></linearGradient><clipPath id="SvgjsClipPath1273"><rect width="1920" height="1080"/></clipPath></defs></svg>